<svg width="208" height="175" xmlns="http://www.w3.org/2000/svg">
  <g stroke="#F59FE7" stroke-width="9" fill="none" fill-rule="evenodd" opacity=".2" stroke-linecap="round">
    <path d="M6.547 38.13L5.249 165.268M6.415 164.42l39.117.79M9.256 38.48c12.153 5.57 24.875 2.672 37.35-.367M46.046 39.862c.902 97.306-1.188 60.049 2.316 111.924M71.184 48.908c-3.955 39.873-2.057 78.985-.595 119.01M51.043 166.14c9.518 3.7 18.787 3.087 28.556.99M76.466 7.562L74.944 43.03M121.026 10.932c7.623 48.259 2.95 98.557 1.123 147.089M81.773 170.359l38.52-1.721M144.871 22.754c1.265 102.657 3.34 54.28-4.537 145.193M123.18 163.34l19.973-.4M47.21 43.713c16.989-1.314 9.927-2.385 21.417.644M77.805 6.883c21.55-2.351 24.575-2.547 43.633 4.7M85.506 39.752c18.63-3.926 10.153-4.313 25.44-.974M85.936 64.633c14.227-2.42 6.534-2.055 23.104-.143M85.743 98.84c13.49-4.414 6.47-3.552 21.095-2.297M84.785 133.576c10.26-4.167 3.945-2.766 19.39-.828M123.482 21.523c16.114-2.197 9.467-3.723 20.431 1.12M145.363 54.933c28.642 72.848 15.19 36.473 40.432 109.096M147.623 53.49l15.005-5.029M164.649 48.798c32.032 88.614 20.081 51.377 38.198 110.93M202.622 160.06c-10.875 5.876-5.565 5.466-15.618 3.364"/>
  </g>
</svg>
