<svg width="344" height="272" xmlns="http://www.w3.org/2000/svg" xmlns:xlink="http://www.w3.org/1999/xlink">
  <g fill="none" fill-rule="evenodd">
    <g stroke="#D787FF" stroke-linecap="round" stroke-linejoin="round" stroke-width="2.5">
      <path d="M84.547-18.87l-1.298 127.137M84.415 107.42l39.117.79M124.046-17.138c.902 97.306-1.188 60.049 2.316 111.924M149.184-8.092c-3.955 39.873-2.057 78.985-.595 119.01M129.043 109.14c9.518 3.7 18.787 3.087 28.556.99M199.026-46.068c7.623 48.259 2.95 98.557 1.123 147.089M159.773 113.359l38.52-1.721M222.871-34.246c1.265 102.657 3.34 54.28-4.537 145.193M201.18 106.34l19.973-.4M163.936 7.633c14.227-2.42 6.534-2.055 23.104-.143M163.743 41.84c13.49-4.414 6.47-3.552 21.095-2.297M162.785 76.576c10.26-4.167 3.945-2.766 19.39-.828M223.363-2.067c28.642 72.848 15.19 36.473 40.432 109.096M242.649-8.202c32.032 88.614 20.081 51.377 38.198 110.93M280.622 103.06c-10.875 5.876-5.565 5.466-15.618 3.364"/>
    </g>
  </g>
</svg>
