<svg width="234" height="184" xmlns="http://www.w3.org/2000/svg">
  <g stroke="#FFB15E" stroke-width="9" fill="none" fill-rule="evenodd" opacity=".2" stroke-linecap="round">
    <path d="M12.876 12.415c-13.65-3.497-.708 19.349 10.376 8.76.598-.571.97-1.662.6-2.4-1.437-2.87-3.798-5.184-5.698-7.775M53 15L187 5M23.171 66c-2.089.129-4.248-.156-6.267.386-24.378 6.54-6.928 26.048 13.204 15.591 9.708-5.042-.948-7.031-8.056-12.463M54 79l107-2M21.246 128.75c-16.7-1.773-13.6 14.261 1.413 17.034 13.411 2.477 15.33-17.128-3.556-18.784M69 137c57.155-1.357 17.37.252 119-10M188 161.413c.935 5.704.179 11.956 2.805 17.112.793 1.559 3.48-1.113 4.705-2.365 5.896-6.023 11.68-12.257 16.421-19.216 6.472-9.5 11.38-19.963 17.069-29.944"/>
  </g>
</svg>
