<svg width="344" height="272" xmlns="http://www.w3.org/2000/svg" xmlns:xlink="http://www.w3.org/1999/xlink">
  <g fill="none" fill-rule="evenodd">
    <g stroke="#FF922B" stroke-linecap="round" stroke-width="2.5">
      <path d="M84.171 21c-2.089.129-4.248-.156-6.267.386-24.378 6.54-6.928 26.048 13.204 15.591 9.708-5.042-.948-7.031-8.056-12.463M115 34l107-2M82.246 77.75c-16.7-1.773-13.6 14.261 1.413 17.034C97.07 97.261 98.989 77.656 80.103 76M130 86c57.155-1.357 17.37.252 119-10M249 110.413c.935 5.704.179 11.956 2.805 17.112.793 1.559 3.48-1.113 4.705-2.365 5.896-6.023 11.68-12.257 16.421-19.216 6.472-9.5 11.38-19.963 17.069-29.944"/>
    </g>
  </g>
</svg>
