<svg width="789" height="239" xmlns="http://www.w3.org/2000/svg">
  <g fill="none" fill-rule="evenodd">
    <g fill="#2470DF" fill-rule="nonzero" opacity=".2">
      <path d="M253.96 150.38c-20.9-.24-41.77.47-62.61 2.12-1.91.15-1.93 3.15 0 3 20.83-1.65 41.71-2.36 62.61-2.12 1.93.02 1.93-2.98 0-3zM252.49 155.83c-.72 18.7-3.18 37.23-7.36 55.48-.43 1.88 2.46 2.68 2.89.8 4.24-18.5 6.74-37.31 7.47-56.28.08-1.93-2.92-1.93-3 0zM191.13 158.83c3.93 11.35 7.7 22.76 11.27 34.23 1.73 5.58 3.42 11.18 5.07 16.78 1.39 4.76 6.14 14.67 2.5 19.18-1.2 1.49.91 3.63 2.12 2.12 2.56-3.18 2.45-6.6 1.59-10.46-1.58-7.06-4-14.05-6.1-20.98-4.24-13.98-8.77-27.87-13.55-41.68-.64-1.8-3.54-1.03-2.9.81zM226.79 94.79c6.77 2.37 2.26 10.66-.29 14.27-2.45 3.46-4.65 6.76-5.65 10.94-1.75 7.32-.15 14.95 4.24 21.01 1.12 1.55 3.72.05 2.59-1.51-3.29-4.55-4.94-9.91-4.46-15.54.56-6.53 4.41-10.66 7.64-15.99 3.24-5.36 3.77-13.61-3.26-16.07-1.84-.64-2.62 2.26-.81 2.89zM212.04 124.99c-3.62 8.1-2.9 17.15 2.25 24.43 1.11 1.56 3.71.07 2.59-1.51-4.5-6.36-5.45-14.24-2.25-21.41.78-1.74-1.81-3.27-2.59-1.51z"/>
      <path d="M199.52 173.53c-7.36-3.93-16.04 1.51-16.36 9.72-.41 10.41 9.41 16.08 18.65 16.36 1.93.06 1.93-2.94 0-3-6.4-.19-13.29-2.98-15.21-9.7-1.96-6.84 4.25-14.61 11.41-10.79 1.7.9 3.22-1.68 1.51-2.59z"/>
      <g>
        <path d="M359.87 192.68c7.6 8.95 6.92 22.45-2.32 29.99-8.96 7.31-25.37 6.04-33.2-2.73-3.82-4.28-5.27-10.09-4.85-15.74.51-6.88 4.52-11.11 10.46-14.21 10.84-5.66 24.74-4.1 31.59 6.81 1.03 1.63 3.62.13 2.59-1.51-7.72-12.27-23.42-14.41-35.7-7.89-6.07 3.23-10.64 7.55-11.7 14.54-1 6.57.32 13.71 4.52 18.98 8.59 10.79 27.54 12.72 38.14 4.14 10.74-8.69 11.34-24.21 2.6-34.5-1.26-1.48-3.38.65-2.13 2.12z"/>
        <path d="M350.9 196.1c5.91 3.77 8.52 11.7 4.77 17.94-3.77 6.27-11.9 7.84-18.09 4.46-6.89-3.77-10.3-11.38-5.85-18.46 4.45-7.07 13.87-7.92 20.13-2.87 1.49 1.2 3.62-.91 2.12-2.12-7.24-5.84-17.78-5.58-23.78 2-6.31 7.98-3.54 17.89 4.53 23.23 7.61 5.04 17.89 3.61 23.14-4.17 5.16-7.65 1.99-17.85-5.46-22.6-1.62-1.04-3.13 1.55-1.51 2.59z"/>
        <path d="M350.89 202.11c3.44 3.86 1.3 9.31-3.6 10.28-1.89.37-1.09 3.27.8 2.89 7.26-1.44 9.73-9.9 4.92-15.3-1.29-1.44-3.4.69-2.12 2.13zM382.24 186.34c.19 13.15-.58 26.24-2.3 39.27l1.5-1.5c-4.58-.44-9.14-1-13.69-1.68-1.89-.28-2.7 2.61-.8 2.89 4.82.72 9.64 1.31 14.49 1.78.88.09 1.4-.76 1.5-1.5 1.72-13.03 2.49-26.13 2.3-39.27-.02-1.92-3.02-1.93-3 .01z"/>
        <path d="M384.06 184.59c-6.28-2.04-12.72-.25-19.14-.84-1.92-.18-1.91 2.82 0 3 6.13.57 12.37-1.21 18.35.74 1.83.59 2.62-2.31.79-2.9zM324.33 182.75c-7.65-.02-15.26.38-22.87 1.18-1.37.14-1.88 1.5-1.06 2.56 1.74 2.23 1.38 6.39 1.57 9.05.24 3.22.42 6.43.55 9.66.26 6.45.29 12.89.15 19.34-.02.77.7 1.55 1.5 1.5l12.47-.84c1.92-.13 1.93-3.13 0-3l-12.47.84 1.5 1.5c.18-8.06.08-16.12-.38-24.17-.28-4.96.46-11.85-2.77-15.99-.35.85-.71 1.71-1.06 2.56 7.61-.8 15.22-1.2 22.87-1.18 1.93-.01 1.94-3.01 0-3.01z"/>
        <path d="M380.33 184.38c.43-2.97 1.59-5.85-1.98-6.83-3.71-1.02-9.44-2.36-13.28-1.61-.51.1-.9.57-1.05 1.05-.47 1.54-.18 3.42-.18 5.01.01 1.93 3.01 1.93 3 0-.01-1.27-.31-2.99.07-4.22l-1.05 1.05c2.55-.5 6.05.48 8.56.95.5.09 3.47.39 3.64.79.1.24-.57 2.56-.63 3.01-.27 1.89 2.62 2.71 2.9.8z"/>
      </g>
      <g>
        <path d="M394.59 109.79c3.03.05 5.96.51 8.85 1.4 1.85.57 2.64-2.33.8-2.89-3.14-.96-6.36-1.46-9.65-1.51-1.93-.03-1.93 2.97 0 3zM427.32 115.26c3.15.52 6.25.5 9.39-.1 1.89-.36 1.09-3.25-.8-2.89-2.58.49-5.2.52-7.79.1-1.89-.32-2.71 2.57-.8 2.89zM418.91 101.61c-.21-3.77.74-7.2 2.84-10.33 1.08-1.61-1.52-3.11-2.59-1.51a19.244 19.244 0 0 0-3.25 11.85c.11 1.91 3.11 1.92 3-.01zM412.4 121.21l-.57 7.61c-.14 1.93 2.86 1.92 3 0l.57-7.61c.15-1.92-2.85-1.92-3 0zM424.27 106.05a15.1 15.1 0 0 1 3.54-2.83c1.67-.96.16-3.56-1.51-2.59-1.54.89-2.94 2-4.15 3.3-1.31 1.41.8 3.54 2.12 2.12zM407.04 101.17c-.98-.95-1.96-1.91-2.94-2.86-1.38-1.35-3.51.77-2.12 2.12.98.95 1.96 1.91 2.94 2.86 1.38 1.35 3.5-.77 2.12-2.12zM404.7 117.29a9.008 9.008 0 0 0-3.63 4.59c-.27.76.31 1.64 1.05 1.85.83.23 1.57-.28 1.85-1.05a5.62 5.62 0 0 1 2.25-2.79c1.61-1.05.11-3.65-1.52-2.6zM421.04 121.52c.23.13.46.26.67.42-.16-.12.19.16.19.16.1.09.19.18.29.27.09.09.18.19.27.29.03.04.07.08.1.12-.06-.08-.06-.07 0 .01.17.23.31.48.45.73.38.72 1.37.93 2.05.54.72-.42.92-1.33.54-2.05a7.614 7.614 0 0 0-3.04-3.07c-.71-.39-1.64-.17-2.05.54-.41.67-.18 1.65.53 2.04z"/>
      </g>
      <g>
        <path d="M726.06 51.99c.39-.87.68-1.77.87-2.7.47-3.11 1.93-4.11 4.4-3.01 3.49.51 2.59 1.91 4.36 4.05.95 1.15 1.78 1.9 3.44 1.93 1.59.02 2.25-.87 3.63-1.28 1.37-.25 2.73-.5 4.1-.76 3.41 2 4.24 4.48 2.5 7.44-.6 1.47-1.47 2.12-.85 3.88.66 1.86 2.26 2.14 3.78 2.93 3.17.71 4.37 2.43 3.6 5.14.6 2.29-.29 3.87-2.66 4.72-.9.63-2.02.93-2.76 1.8-1.48 1.73-1.47 3.28-1.03 5.36.52 2.47 1.88 5.19-.34 7.44-2.93 2.96-7.35.82-10.29-.42-1.78-.75-2.55 2.15-.8 2.89 4.2 1.77 9.54 3.42 13.21-.35a8.205 8.205 0 0 0 2.18-4.35c.48-2.99-2.48-6.6.1-9.13 1.58-1.54 3.64-1.79 4.92-3.86.94-1.53 1.35-3.4 1.13-5.18-.26-2.11-1.42-4.08-3.12-5.37-.58-.44-1.25-.71-1.88-1.07-.98-.09-1.74-.54-2.29-1.33-.99-.45-1.09-.97-.31-1.58.22-2.2 1.59-3.29 1.14-5.84-.3-1.7-1.12-3.26-2.43-4.41-1.27-1.1-3.03-1.79-4.7-1.88-3.16-.17-5.3 2.8-8.38.08-1.22-1.08-1.4-2.6-2.97-3.6-1.28-.81-2.84-1.21-4.35-1.07-5.03.47-5.6 4.87-7.08 8.73-.71 1.81 2.19 2.59 2.88.8z"/>
        <path d="M737 88.87c-2.79 2.76-.74 11.17-7.28 8.33-3.63-1.58-1.97-7.33-6.11-8.43-1.17-.31-2.22.12-3.23.6-.93.44-2.05 2.06-2.94 2.17l-5.31-3.06c.18-1.48.6-2.87 1.28-4.17 1.04-2.86 1.62-5.44-.75-7.87-1.55-1.59-3.95-2.04-4.87-4.34-.97-2.4.52-5.02 2.35-6.28.47-.32 1.3-.25 1.81-.6 2.47-1.71 1.05-3.74.1-5.8-1.45-3.16-1.38-10.29 5.28-7.44 1.02.44 1.85 1.35 2.86 1.84 1.09.53 2.39.94 3.61.72 2.79-.51 4.22-3.15 3.88-5.79-.24-1.89-3.24-1.91-3 0-1.94 2.23-3.69 2.56-5.26 1.01-.54-.42-1.14-.75-1.78-.98-.86-.36-1.66-.63-2.62-.65-1.64-.03-3.34.67-4.58 1.72-1.58 1.34-2.42 3.2-2.57 5.25-.1 1.45.13 2.8.67 4.14.22.55 1.66 2.23 1.58 2.68-.3 1.56-2.81 1.31-3.99 2.47-1.84 1.83-1.78 4.59-1.48 6.96.2 1.52.47 3.14 1.52 4.33.66.76 1.52.92 2.19 1.56 2.44 2.38 1.89 4.96 1.36 7.96-.6 3.42-.97 7.89 2.78 9.83 1.65.85 3.45.56 5.08-.13.91-.39 1.87-1.57 2.76-1.82 3.03-.84 3.44.65 4.2 2.76 1.36 3.79 5.14 5.09 8.95 4.56 1.8-.25 3.8-.88 4.91-2.44 1.31-1.84-.46-5.8.71-6.96 1.39-1.37-.73-3.49-2.11-2.13z"/>
        <path d="M726.64 63.07c-4.26 2.97-4.64 9.91-2.8 14.42 2.01 4.92 9.21 3.43 12.74 1.06 4.02-2.7 5.63-8.26 3.28-12.57-2.34-4.29-7.86-5.43-11.45-2.04-1.41 1.33.72 3.44 2.12 2.12 2.84-2.67 6.7-.28 7.35 3.12.58 2.99-1.12 6.01-3.79 7.32-2.62 1.29-6.83 2.25-7.82-1.42-.76-2.84-.78-7.57 1.88-9.43 1.58-1.08.08-3.68-1.51-2.58z"/>
        <g>
          <path d="M691.2 24.95c1.39-2.13.69-2.47 3.63-1.8 4.48 1.03.85.17 2.57 2.06.91 1 .71 1.79 2.28 2.24 3.08.87 1.96-1.89 4.5 2.2 2.4 3.85.26 2.14.24 5-.01 1.13.55 1.54 1.06 2.49 1.33 2.54 1.84-2.67.63 3.99-1.12 6.15.11 1.44-2.17 3.66-1.37 1.33-1.42 1.06-2.16 2.96-.22.57.28 1.42.02 1.92-3.13 5.94-5.15 4-7.89 2.01-1.56-1.14-3.06 1.47-1.51 2.59 2.62 1.9 5.9 3.86 9.16 2.21 3.78-1.91 2.23-5.3 4.01-8.07 1.68-2.62 5.39-2.42 6.08-6.34.21-1.19.03-2.5-.48-3.59-.62-1.33-2.48-2-2.98-3.06-.95-2 2.42-4.97 1.1-7.99-1.29-2.94-3.65-3.12-6.38-3.41-2.5-.26-2.48-1.18-3.78-3.13-.96-1.45-2.35-2.35-4.09-2.51-3.55-.32-4.78 2.54-6.42 5.07-1.07 1.61 1.53 3.11 2.58 1.5z"/>
          <path d="M691.84 51.83c-.62.51-1.1 2.18-1.45 2.45-.13 2-1.88 1.99-5.24-.01.08-.58.07-1.16-.02-1.73-.59-1.58-.67-2.86-2.53-3.38-2.25-.63-1.71.79-3.77.79-2.56-1.93-3.02-3.64-1.38-5.12.33-.39.59-.82.79-1.3.69-1.81.25-3.03-.51-4.7-1.17-2.6-4.39-4.05-.33-6.77.46-.31 1.23.16 1.74-.22 2.18-1.63.92-2.2 1.22-4.41 1.16-8.44 4.73-2.76 6.38-1.73.63.4 1.3.75 2.08.8 2.39.15 3.61-1.64 4.08-3.65.44-1.88-2.45-2.68-2.89-.8-.68 2.86-4.17-1.48-5-1.87-1.61-.76-3.29-.69-4.85.12-1.26.65-2.12 1.62-2.67 2.93-.65 1.54.46 3.88-.02 4.98-.54 1.23-1.68.67-2.98 1.63-1.13.83-1.57 2.12-1.88 3.42-.33 1.41-.48 3.37.22 4.71.31.6 1.01.98 1.33 1.53 1.27 2.18.16 3.38-.38 5.16-.78 2.57-2.35 5.54.31 7.83.97.83 2.18 1.04 3.41.96.57-.04 1.2-.46 1.74-.45.83-.76 1.51-.63 2.02.39.87.47 1.22 1.19 1.05 2.17 1.26 2.73 3.53 4.52 6.8 4.28 1.04-.08 2.28-.32 3.08-1.08 1.31-1.25.6-3.83 1.79-4.82 1.47-1.22-.66-3.34-2.14-2.11z"/>
          <path d="M689.33 32.03c-3.58 1.41-4.86 5.72-4.71 9.31.19 4.45 5.46 5.06 8.94 3.99 3.41-1.05 5.67-4.66 5.07-8.17-.67-3.93-4.78-6.19-8.33-4.2-1.68.95-.17 3.54 1.51 2.59 2.51-1.41 4.39 1.46 3.82 3.74-.41 1.64-1.8 2.94-3.45 3.29-.73.16-3.09.33-3.8-.12-.79-.51-.79-1.52-.72-2.32.15-1.74.58-4.49 2.46-5.23 1.78-.69 1.01-3.59-.79-2.88z"/>
        </g>
        <g>
          <path d="M674.55 16.26c1.84-2.16 5.6-5.71 8.66-3.85 1.65 1.01 3.16-1.59 1.51-2.59-4.38-2.66-9.47 1-12.29 4.32-1.24 1.47.87 3.6 2.12 2.12zM669.32 7.28c2.15-2.41 4.98-3.72 8.22-3.71 1.93 0 1.93-3 0-3-3.97 0-7.69 1.62-10.34 4.59-1.28 1.44.84 3.57 2.12 2.12zM766.04 61.25c2.04 1.22 1.71 6.36 1.49 8.24-.33 2.96-1.3 5.78-2.24 8.59-.61 1.83 2.28 2.62 2.89.8 1.37-4.09 2.75-8.33 2.45-12.71-.17-2.47-.77-6.12-3.09-7.51-1.65-.99-3.16 1.6-1.5 2.59zM774.81 58.21c4.09 8.32 1.76 16.99-2.72 24.6-.98 1.67 1.61 3.18 2.59 1.51 5.06-8.6 7.3-18.32 2.72-27.62-.85-1.73-3.44-.21-2.59 1.51z"/>
        </g>
      </g>
    </g>
    <g transform="translate(0 55)">
      <g fill="#FFF" fill-rule="nonzero" stroke="#2470DF" stroke-width="2">
        <path d="M743 177H14M747 177h22M779 177h10M8 177H0"/>
      </g>
      <path d="M469.89 170h232.22c5.46 0 9.89-4.43 9.89-9.89V9.89c0-5.46-4.43-9.89-9.89-9.89H469.89C464.43 0 460 4.43 460 9.89v150.22c0 5.46 4.43 9.89 9.89 9.89z" stroke="#2470DF" stroke-width="2" fill="#FFF" fill-rule="nonzero"/>
      <path d="M440 177h292a9 9 0 0 0 9-9H431a9 9 0 0 0 9 9z" stroke="#2470DF" stroke-width="2" fill="#F5F9FF" fill-rule="nonzero"/>
      <path d="M569.83 172h32.35a3.83 3.83 0 0 0 3.83-3.83V168h-40v.17a3.81 3.81 0 0 0 3.82 3.83z" fill="#2470DF" fill-rule="nonzero"/>
      <path stroke="#2470DF" stroke-width="2" fill="#FFF" fill-rule="nonzero" d="M691 42H481V28h210z"/>
      <path stroke="#D787FF" stroke-width="2" fill="#FFF" fill-rule="nonzero" d="M691 114h-60V54h60z"/>
      <path stroke="#0FF7AA" stroke-width="2" fill="#FFF" fill-rule="nonzero" d="M616 114h-60V54h60z"/>
      <path stroke="#FFDB17" stroke-width="2" fill="#FFF" fill-rule="nonzero" d="M515 114h26V54h-60v13"/>
      <path d="M486 103s.3-13 13-13 22.41 12.55 12 33c-7.89 15.51-25.34 23.54-25 33" stroke="#FF922B" stroke-width="2" fill="#FFF4EA" fill-rule="nonzero"/>
      <path d="M684 35h-27M530 35h-10M514 35h-10M498 35h-10M692 128h-66M616 128h-20" stroke="#2470DF" stroke-width="2" fill="#2470DF" fill-rule="nonzero"/>
      <path d="M532 67h-36M532 78h-23" stroke="#FFDB17" stroke-width="2" fill="#2470DF" fill-rule="nonzero"/>
      <path d="M692 148h-20M692 138H565M664 148h-9M648 148h-74" stroke="#2470DF" stroke-width="2" fill="#2470DF" fill-rule="nonzero"/>
      <path stroke="#FFDB17" stroke-width="2" fill="#FFF" fill-rule="nonzero" d="M661.945 88.932l-13.857 8-8-13.856 13.856-8z"/>
      <circle stroke="#30D7FF" stroke-width="2" fill="#FFF" fill-rule="nonzero" cx="668" cy="83" r="11"/>
      <path d="M667.53 86.44l-14.57 5.08c-.87.31-1.09 1.44-.39 2.05l11.68 10.07c.7.61 1.8.22 1.97-.69l2.88-15.15c.19-.91-.69-1.67-1.57-1.36z" stroke="#D787FF" stroke-width="2" fill="#FFF" fill-rule="nonzero" stroke-linejoin="round"/>
      <path stroke="#0FF7AA" stroke-width="2" d="M560.47 92.48l11.33-5.16 4.97 4.49 16.92-7.33 6.05 7.28 12.15-4.98"/>
      <circle stroke="#0FF7AA" stroke-width="2" cx="599" cy="72" r="8"/>
      <g fill-rule="nonzero">
        <g opacity=".3" transform="translate(433 70)" fill="#2470DF">
          <path d="M6.5 113h42a6.5 6.5 0 0 0 6.5-6.5V6.5A6.5 6.5 0 0 0 48.5 0h-42A6.5 6.5 0 0 0 0 6.5v100a6.5 6.5 0 0 0 6.5 6.5z" stroke="#2470DF" stroke-width="2"/>
          <path stroke="#2470DF" stroke-width="2" d="M0 12h55v89H0z"/>
          <circle cx="27.5" cy="106.5" r="3.5"/>
        </g>
        <g transform="translate(431 68)">
          <path d="M6.5 113h42a6.5 6.5 0 0 0 6.5-6.5V6.5A6.5 6.5 0 0 0 48.5 0h-42A6.5 6.5 0 0 0 0 6.5v100a6.5 6.5 0 0 0 6.5 6.5z" stroke="#2470DF" stroke-width="2" fill="#F5F9FF"/>
          <path stroke="#2470DF" stroke-width="2" fill="#FFF" d="M0 12h55v89H0z"/>
          <circle fill="#2470DF" cx="27.5" cy="106.5" r="3.5"/>
        </g>
      </g>
      <path d="M486 156c.34-9.46-18.11-17.49-26-33-10.41-20.45-.7-33 12-33s14 13 14 13v53z" stroke="#FF922B" stroke-width="2" fill="#FFF4EA" fill-rule="nonzero"/>
      <path d="M486 92v70" stroke="#2470DF" stroke-width="2" fill="#FFF" fill-rule="nonzero"/>
    </g>
  </g>
</svg>
