<svg width="282" height="252" xmlns="http://www.w3.org/2000/svg">
  <g stroke="#68F8B9" stroke-width="9" fill="none" fill-rule="evenodd" opacity=".2" stroke-linecap="round">
    <path d="M126.34 108.696c-6.672 5.314-24.155 14.401-26.886 26.5-8.29 36.727 19.657 86.187 63.906 72.459 51.07-15.844 1.655-122.317-44.257-96.694M187 62l2.767 32M160 42l.59 22M111 29c4.755 22.899 2.282 7.419 2.86 47M94 86V108M91 32l.694 17M156 5l1.718 8M5 247c8.175-4.42 28.95-17.494 40.37-16.986 5.148.23 8.155 6.06 13.092 7.39 8.224 2.217 17.025 2.014 25.538 3.02M104 239c128.561.996 70.927-2.976 173 8"/>
  </g>
</svg>
