<svg width="344" height="272" xmlns="http://www.w3.org/2000/svg" xmlns:xlink="http://www.w3.org/1999/xlink">
  <g fill="none" fill-rule="evenodd">
    <g mask="url(#b)" stroke="#0FF7AA" stroke-linecap="round" stroke-linejoin="round" stroke-width="2.5">
      <path d="M302.34 113.696c-6.672 5.314-24.155 14.401-26.886 26.5-8.29 36.727 19.657 86.187 63.906 72.459 51.07-15.844 1.655-122.317-44.257-96.694M320 47l.59 22M287 34c4.755 22.899 2.282 7.419 2.86 47M270 91V113M267 37l.694 17M316 10l1.718 8M181 252c8.175-4.42 28.95-17.494 40.37-16.986 5.148.23 8.155 6.06 13.092 7.39 8.224 2.217 17.025 2.014 25.538 3.02M280 244c128.561.996 70.927-2.976 173 8"/>
    </g>
  </g>
</svg>
