<svg width="181" height="105" xmlns="http://www.w3.org/2000/svg">
  <g fill="none" fill-rule="evenodd">
    <path d="M95.872 83.337a36.487 36.487 0 0 1 7.454 9.732c.587 1.119-1.102 2.107-1.689.988a34.604 34.604 0 0 0-7.148-9.334c-.926-.857.457-2.243 1.383-1.386z" fill="#0FF7AA" fill-rule="nonzero"/>
    <path d="M100.972 59.214c-2.857-1.053-5.713-2.113-8.57-3.166-1.174-.432-.665-2.329.522-1.89 2.856 1.053 5.713 2.112 8.57 3.166 1.167.431.665 2.328-.522 1.89z" fill="#FFDB17" fill-rule="nonzero"/>
    <path d="M115.965 68.057c-1.278-.824-2.563-1.648-3.841-2.472-1.057-.68-.078-2.381.985-1.694 1.278.824 2.563 1.648 3.841 2.472 1.057.68.078 2.38-.985 1.694zM71.767 70.327C78.191 78.235 83.461 86.914 87.46 96.3c.489 1.15-1.194 2.152-1.69.987-3.932-9.222-9.071-17.804-15.39-25.575-.783-.968.593-2.36 1.388-1.386zM144.55 104.98c-7.083-.058-14.257-1.766-20.387-5.396-4.46-2.642-7.833-6.436-11.159-10.341-9.658-11.335-21.339-20.126-35.06-25.954-1.155-.49-.157-2.178.984-1.694 12.724 5.402 24.235 13.402 33.372 23.828 3.437 3.918 6.607 8.163 10.898 11.205 6.156 4.362 13.891 6.331 21.359 6.397 1.252.006 1.258 1.968-.007 1.955zM150.185 89.001c2.23-3.846 7.676-5.16 10.924-1.864 3.11 3.153 3.032 8.11.41 11.499-3.195 4.127-8.517 5.527-13.447 6.155-1.246.157-1.233-1.806 0-1.963 5.165-.654 13.617-3.093 13.487-9.772-.085-4.31-4.37-7.58-8.179-4.657-4.154 3.186-1.954 6.059 1.105 8.413.991.753.013 2.46-.985 1.688-3.183-2.453-5.787-5.24-3.315-9.499z" opacity=".2" fill="#2470DF" fill-rule="nonzero"/>
    <path d="M173.533 98.027c-2.387 2.381-5.25 4.232-8.616 4.795-1.232.21-1.76-1.681-.521-1.89 3.058-.51 5.582-2.126 7.754-4.291.893-.89 2.276.497 1.383 1.386z" fill="#D787FF" fill-rule="nonzero"/>
    <path d="M180.322 84.704a32.31 32.31 0 0 1-2.642 7.482c-.567 1.132-2.256.138-1.689-.987 1.122-2.237 1.905-4.572 2.446-7.012.274-1.236 2.159-.713 1.885.517z" opacity=".2" fill="#2470DF" fill-rule="nonzero"/>
    <path stroke="#2470DF" stroke-width="1.304" fill="#D9E7FF" fill-rule="nonzero" stroke-linecap="round" stroke-linejoin="round" d="M65.317 57.212L37.665 32.468l32.205 8.346z"/>
    <path stroke="#2470DF" stroke-width="1.304" fill="#FFF" fill-rule="nonzero" stroke-linecap="round" stroke-linejoin="round" d="M87.12 27.445L1.548 1 47.07 52.189l17.758-9.883.49 14.906 8.934-20.728z"/>
    <path stroke="#2470DF" stroke-width="1.304" stroke-linecap="round" stroke-linejoin="round" d="M74.252 36.484L15.237 8.3l49.591 34.006"/>
  </g>
</svg>
